# xmcd
#
# Track frame offsets: 
#        150
#        19427
#        28232
#        56635
#        87908
#        126519
#        161858
#
# Disc length: 2655 seconds
#
# Revision: 1
# Processed by: cddbd v1.5.2PL0 Copyright (c) Steve Scherf et al.
# Submitted via: ExactAudioCopy v1.3
#
DISCID=630a5d07
DTITLE=Chick Corea - The Very Best Of
DYEAR=2006
DGENRE=Jazz
TTITLE0=Marjourn
TTITLE1=And so I
TTITLE2=Turkish woman
TTITLE3=Love planet
TTITLE4=Vamp
TTITLE5=Sin street
TTITLE6=Dancing girls
EXTD=YEAR: 2006
EXTT0=
EXTT1=
EXTT2=
EXTT3=
EXTT4=
EXTT5=
EXTT6=
PLAYORDER=
